<mxfile host="65bd71144e">
    <diagram id="tjWmgUEGdXFaHl7p6g_r" name="Page-1">
        <mxGraphModel dx="294" dy="755" grid="1" gridSize="10" guides="1" tooltips="1" connect="1" arrows="1" fold="1" page="1" pageScale="1" pageWidth="850" pageHeight="1100" math="0" shadow="0">
            <root>
                <mxCell id="0"/>
                <mxCell id="1" parent="0"/>
                <mxCell id="2" value="&amp;lt;&amp;lt;System&amp;gt;&amp;gt;&lt;br&gt;Logistic Provider" style="shape=umlActor;verticalLabelPosition=bottom;verticalAlign=top;html=1;outlineConnect=0;" vertex="1" parent="1">
                    <mxGeometry x="208.59" y="50" width="30" height="60" as="geometry"/>
                </mxCell>
                <mxCell id="3" value="&lt;p style=&quot;margin:0px;margin-top:4px;text-align:center;&quot;&gt;&amp;lt;&amp;lt;Boundary&amp;gt;&amp;gt;&lt;br&gt;&lt;b&gt;Payment Page&lt;/b&gt;&lt;/p&gt;" style="shape=rect;html=1;overflow=fill;html=1;whiteSpace=wrap;align=center;" vertex="1" parent="1">
                    <mxGeometry x="413.59" y="70" width="90" height="40" as="geometry"/>
                </mxCell>
                <mxCell id="4" value="Seller" style="shape=umlActor;verticalLabelPosition=bottom;verticalAlign=top;html=1;outlineConnect=0;" vertex="1" parent="1">
                    <mxGeometry x="43.59" y="50" width="30" height="60" as="geometry"/>
                </mxCell>
                <mxCell id="5" value="&amp;lt;&amp;lt;System&amp;gt;&amp;gt;&lt;br&gt;Bank" style="shape=umlActor;verticalLabelPosition=bottom;verticalAlign=top;html=1;outlineConnect=0;" vertex="1" parent="1">
                    <mxGeometry x="1505.62" y="50" width="30" height="60" as="geometry"/>
                </mxCell>
                <mxCell id="6" value="Customer" style="shape=umlActor;verticalLabelPosition=bottom;verticalAlign=top;html=1;outlineConnect=0;" vertex="1" parent="1">
                    <mxGeometry x="123.59" y="50" width="30" height="60" as="geometry"/>
                </mxCell>
                <mxCell id="7" value="&lt;p style=&quot;margin:0px;margin-top:4px;text-align:center;&quot;&gt;&amp;lt;&amp;lt;Boundary&amp;gt;&amp;gt;&lt;br&gt;&lt;b&gt;Set Price Page&lt;/b&gt;&lt;/p&gt;" style="shape=rect;html=1;overflow=fill;html=1;whiteSpace=wrap;align=center;" vertex="1" parent="1">
                    <mxGeometry x="283.59" y="70" width="90" height="40" as="geometry"/>
                </mxCell>
                <mxCell id="8" value="&lt;p style=&quot;margin:0px;margin-top:4px;text-align:center;&quot;&gt;&amp;lt;&amp;lt;Control&amp;gt;&amp;gt;&lt;br&gt;&lt;b&gt;PaymentController&lt;/b&gt;&lt;/p&gt;" style="shape=rect;html=1;overflow=fill;html=1;whiteSpace=wrap;align=center;" vertex="1" parent="1">
                    <mxGeometry x="634.37" y="70" width="120" height="40" as="geometry"/>
                </mxCell>
                <mxCell id="9" value="&lt;p style=&quot;margin:0px;margin-top:4px;text-align:center;&quot;&gt;&amp;lt;&amp;lt;Entity&amp;gt;&amp;gt;&lt;br&gt;&lt;b&gt;Durian Type&lt;/b&gt;&lt;/p&gt;" style="shape=rect;html=1;overflow=fill;html=1;whiteSpace=wrap;align=center;" vertex="1" parent="1">
                    <mxGeometry x="932.8" y="70" width="120" height="40" as="geometry"/>
                </mxCell>
                <mxCell id="10" value="&lt;p style=&quot;margin:0px;margin-top:4px;text-align:center;&quot;&gt;&amp;lt;&amp;lt;Entity&amp;gt;&amp;gt;&lt;br&gt;&lt;b&gt;Durian Price&lt;/b&gt;&lt;/p&gt;" style="shape=rect;html=1;overflow=fill;html=1;whiteSpace=wrap;align=center;" vertex="1" parent="1">
                    <mxGeometry x="772.8" y="70" width="120" height="40" as="geometry"/>
                </mxCell>
                <mxCell id="11" value="&lt;p style=&quot;margin:0px;margin-top:4px;text-align:center;&quot;&gt;&amp;lt;&amp;lt;Entity&amp;gt;&amp;gt;&lt;br&gt;&lt;b&gt;Deliver Price&lt;/b&gt;&lt;/p&gt;" style="shape=rect;html=1;overflow=fill;html=1;whiteSpace=wrap;align=center;" vertex="1" parent="1">
                    <mxGeometry x="1195.62" y="70" width="120" height="40" as="geometry"/>
                </mxCell>
                <mxCell id="12" value="&lt;p style=&quot;margin:0px;margin-top:4px;text-align:center;&quot;&gt;&amp;lt;&amp;lt;Entity&amp;gt;&amp;gt;&lt;br&gt;&lt;b&gt;Total Durian Price&lt;/b&gt;&lt;/p&gt;" style="shape=rect;html=1;overflow=fill;html=1;whiteSpace=wrap;align=center;" vertex="1" parent="1">
                    <mxGeometry x="1325.62" y="70" width="120" height="40" as="geometry"/>
                </mxCell>
                <mxCell id="13" value="" style="endArrow=none;dashed=1;html=1;dashPattern=1 3;strokeWidth=2;startArrow=none;" edge="1" parent="1" source="37">
                    <mxGeometry width="50" height="50" relative="1" as="geometry">
                        <mxPoint x="63.59" y="970" as="sourcePoint"/>
                        <mxPoint x="63.59000000000003" y="150" as="targetPoint"/>
                    </mxGeometry>
                </mxCell>
                <mxCell id="14" value="" style="endArrow=none;dashed=1;html=1;dashPattern=1 3;strokeWidth=2;startArrow=none;" edge="1" parent="1" source="51">
                    <mxGeometry width="50" height="50" relative="1" as="geometry">
                        <mxPoint x="138.5210344827586" y="400" as="sourcePoint"/>
                        <mxPoint x="138.09000000000003" y="150" as="targetPoint"/>
                    </mxGeometry>
                </mxCell>
                <mxCell id="15" value="" style="endArrow=none;dashed=1;html=1;dashPattern=1 3;strokeWidth=2;startArrow=none;" edge="1" parent="1" source="30">
                    <mxGeometry width="50" height="50" relative="1" as="geometry">
                        <mxPoint x="228.09" y="970" as="sourcePoint"/>
                        <mxPoint x="328.5899999999999" y="150" as="targetPoint"/>
                    </mxGeometry>
                </mxCell>
                <mxCell id="16" value="" style="endArrow=none;dashed=1;html=1;dashPattern=1 3;strokeWidth=2;startArrow=none;" edge="1" parent="1">
                    <mxGeometry width="50" height="50" relative="1" as="geometry">
                        <mxPoint x="223.59000000000003" y="210" as="sourcePoint"/>
                        <mxPoint x="223.59000000000003" y="150" as="targetPoint"/>
                    </mxGeometry>
                </mxCell>
                <mxCell id="17" value="" style="endArrow=none;dashed=1;html=1;dashPattern=1 3;strokeWidth=2;startArrow=none;" edge="1" parent="1">
                    <mxGeometry width="50" height="50" relative="1" as="geometry">
                        <mxPoint x="458.2524999999998" y="182.5" as="sourcePoint"/>
                        <mxPoint x="458.0899999999999" y="150" as="targetPoint"/>
                    </mxGeometry>
                </mxCell>
                <mxCell id="18" value="" style="endArrow=none;dashed=1;html=1;dashPattern=1 3;strokeWidth=2;startArrow=none;" edge="1" parent="1" source="44">
                    <mxGeometry width="50" height="50" relative="1" as="geometry">
                        <mxPoint x="832.8" y="260" as="sourcePoint"/>
                        <mxPoint x="832.3" y="150" as="targetPoint"/>
                    </mxGeometry>
                </mxCell>
                <mxCell id="19" value="" style="endArrow=none;dashed=1;html=1;dashPattern=1 3;strokeWidth=2;startArrow=none;" edge="1" parent="1" source="47">
                    <mxGeometry width="50" height="50" relative="1" as="geometry">
                        <mxPoint x="940.6647368421052" y="300" as="sourcePoint"/>
                        <mxPoint x="993" y="150" as="targetPoint"/>
                    </mxGeometry>
                </mxCell>
                <mxCell id="20" value="" style="endArrow=none;dashed=1;html=1;dashPattern=1 3;strokeWidth=2;startArrow=none;" edge="1" parent="1" source="61">
                    <mxGeometry width="50" height="50" relative="1" as="geometry">
                        <mxPoint x="1255.12" y="970" as="sourcePoint"/>
                        <mxPoint x="1255.12" y="150" as="targetPoint"/>
                    </mxGeometry>
                </mxCell>
                <mxCell id="21" value="" style="endArrow=none;dashed=1;html=1;dashPattern=1 3;strokeWidth=2;" edge="1" parent="1">
                    <mxGeometry width="50" height="50" relative="1" as="geometry">
                        <mxPoint x="1385.12" y="970" as="sourcePoint"/>
                        <mxPoint x="1385.12" y="150" as="targetPoint"/>
                    </mxGeometry>
                </mxCell>
                <mxCell id="22" value="" style="endArrow=none;dashed=1;html=1;dashPattern=1 3;strokeWidth=2;startArrow=none;" edge="1" parent="1" source="75">
                    <mxGeometry width="50" height="50" relative="1" as="geometry">
                        <mxPoint x="1520.12" y="970" as="sourcePoint"/>
                        <mxPoint x="1520.12" y="150" as="targetPoint"/>
                    </mxGeometry>
                </mxCell>
                <mxCell id="23" value="" style="endArrow=classic;html=1;exitX=0.145;exitY=-0.02;exitDx=0;exitDy=0;exitPerimeter=0;entryX=0.139;entryY=0.91;entryDx=0;entryDy=0;entryPerimeter=0;" edge="1" parent="1" source="37" target="30">
                    <mxGeometry width="50" height="50" relative="1" as="geometry">
                        <mxPoint x="77.38999999999996" y="172" as="sourcePoint"/>
                        <mxPoint x="313.59" y="172" as="targetPoint"/>
                    </mxGeometry>
                </mxCell>
                <mxCell id="24" value="SetDurianType()" style="edgeLabel;html=1;align=center;verticalAlign=middle;resizable=0;points=[];" vertex="1" connectable="0" parent="23">
                    <mxGeometry x="0.1752" y="2" relative="1" as="geometry">
                        <mxPoint x="-20" y="2" as="offset"/>
                    </mxGeometry>
                </mxCell>
                <mxCell id="25" value="" style="endArrow=none;dashed=1;html=1;dashPattern=1 3;strokeWidth=2;" edge="1" parent="1" target="30">
                    <mxGeometry width="50" height="50" relative="1" as="geometry">
                        <mxPoint x="328.5899999999999" y="970" as="sourcePoint"/>
                        <mxPoint x="228.09" y="150" as="targetPoint"/>
                    </mxGeometry>
                </mxCell>
                <mxCell id="26" style="edgeStyle=none;html=1;entryX=0.095;entryY=1.06;entryDx=0;entryDy=0;exitX=0.25;exitY=0;exitDx=0;exitDy=0;entryPerimeter=0;" edge="1" parent="1" source="30" target="47">
                    <mxGeometry relative="1" as="geometry">
                        <mxPoint x="343.59" y="178" as="sourcePoint"/>
                        <mxPoint x="873.59" y="220" as="targetPoint"/>
                    </mxGeometry>
                </mxCell>
                <mxCell id="27" value="SetDurianType()" style="edgeLabel;html=1;align=center;verticalAlign=middle;resizable=0;points=[];" vertex="1" connectable="0" parent="26">
                    <mxGeometry x="-0.0407" y="-1" relative="1" as="geometry">
                        <mxPoint as="offset"/>
                    </mxGeometry>
                </mxCell>
                <mxCell id="28" style="edgeStyle=none;html=1;exitX=0.75;exitY=0;exitDx=0;exitDy=0;entryX=0.182;entryY=0.966;entryDx=0;entryDy=0;entryPerimeter=0;" edge="1" parent="1" target="44">
                    <mxGeometry relative="1" as="geometry">
                        <mxPoint x="713.59" y="220" as="targetPoint"/>
                        <mxPoint x="338.5899999999999" y="218.125" as="sourcePoint"/>
                    </mxGeometry>
                </mxCell>
                <mxCell id="29" value="SetDurianPrice()" style="edgeLabel;html=1;align=center;verticalAlign=middle;resizable=0;points=[];" vertex="1" connectable="0" parent="28">
                    <mxGeometry x="0.0911" y="2" relative="1" as="geometry">
                        <mxPoint as="offset"/>
                    </mxGeometry>
                </mxCell>
                <mxCell id="30" value="" style="rounded=0;whiteSpace=wrap;html=1;rotation=90;" vertex="1" parent="1">
                    <mxGeometry x="289.84" y="188.75" width="77.5" height="20" as="geometry"/>
                </mxCell>
                <mxCell id="31" value="" style="endArrow=none;dashed=1;html=1;dashPattern=1 3;strokeWidth=2;startArrow=none;" edge="1" parent="1" source="55">
                    <mxGeometry width="50" height="50" relative="1" as="geometry">
                        <mxPoint x="223.09" y="970" as="sourcePoint"/>
                        <mxPoint x="223.59000000000003" y="210" as="targetPoint"/>
                    </mxGeometry>
                </mxCell>
                <mxCell id="32" value="" style="endArrow=none;dashed=1;html=1;dashPattern=1 3;strokeWidth=2;" edge="1" parent="1">
                    <mxGeometry width="50" height="50" relative="1" as="geometry">
                        <mxPoint x="693.87" y="970" as="sourcePoint"/>
                        <mxPoint x="694" y="150" as="targetPoint"/>
                    </mxGeometry>
                </mxCell>
                <mxCell id="33" value="" style="endArrow=none;dashed=1;html=1;dashPattern=1 3;strokeWidth=2;startArrow=none;" edge="1" parent="1" source="53">
                    <mxGeometry width="50" height="50" relative="1" as="geometry">
                        <mxPoint x="458.09" y="970" as="sourcePoint"/>
                        <mxPoint x="458.5899999999999" y="180" as="targetPoint"/>
                    </mxGeometry>
                </mxCell>
                <mxCell id="34" value="" style="endArrow=none;dashed=1;html=1;dashPattern=1 3;strokeWidth=2;startArrow=none;" edge="1" parent="1" target="37">
                    <mxGeometry width="50" height="50" relative="1" as="geometry">
                        <mxPoint x="63.59000000000003" y="300" as="sourcePoint"/>
                        <mxPoint x="63.59" y="150" as="targetPoint"/>
                    </mxGeometry>
                </mxCell>
                <mxCell id="35" style="edgeStyle=none;html=1;exitX=0.5;exitY=0;exitDx=0;exitDy=0;entryX=0.5;entryY=1;entryDx=0;entryDy=0;" edge="1" parent="1" source="37" target="30">
                    <mxGeometry relative="1" as="geometry"/>
                </mxCell>
                <mxCell id="36" value="SetDurianPrice()" style="edgeLabel;html=1;align=center;verticalAlign=middle;resizable=0;points=[];" vertex="1" connectable="0" parent="35">
                    <mxGeometry x="0.1476" y="-3" relative="1" as="geometry">
                        <mxPoint x="-21" y="-2" as="offset"/>
                    </mxGeometry>
                </mxCell>
                <mxCell id="37" value="" style="rounded=0;whiteSpace=wrap;html=1;rotation=90;" vertex="1" parent="1">
                    <mxGeometry x="23.59" y="190" width="80" height="20" as="geometry"/>
                </mxCell>
                <mxCell id="38" value="" style="endArrow=none;dashed=1;html=1;dashPattern=1 3;strokeWidth=2;" edge="1" parent="1">
                    <mxGeometry width="50" height="50" relative="1" as="geometry">
                        <mxPoint x="832.3" y="970" as="sourcePoint"/>
                        <mxPoint x="832.7736842105264" y="250" as="targetPoint"/>
                    </mxGeometry>
                </mxCell>
                <mxCell id="39" value="" style="endArrow=none;dashed=1;html=1;dashPattern=1 3;strokeWidth=2;" edge="1" parent="1">
                    <mxGeometry width="50" height="50" relative="1" as="geometry">
                        <mxPoint x="992.3" y="970" as="sourcePoint"/>
                        <mxPoint x="992.8" y="300" as="targetPoint"/>
                    </mxGeometry>
                </mxCell>
                <mxCell id="40" value="" style="endArrow=none;dashed=1;html=1;dashPattern=1 3;strokeWidth=2;" edge="1" parent="1">
                    <mxGeometry width="50" height="50" relative="1" as="geometry">
                        <mxPoint x="63.59000000000003" y="970" as="sourcePoint"/>
                        <mxPoint x="63.59000000000003" y="300" as="targetPoint"/>
                    </mxGeometry>
                </mxCell>
                <mxCell id="41" value="" style="endArrow=none;dashed=1;html=1;dashPattern=1 3;strokeWidth=2;" edge="1" parent="1">
                    <mxGeometry width="50" height="50" relative="1" as="geometry">
                        <mxPoint x="138.09000000000003" y="970" as="sourcePoint"/>
                        <mxPoint x="138.59000000000003" y="400" as="targetPoint"/>
                    </mxGeometry>
                </mxCell>
                <mxCell id="42" style="edgeStyle=none;html=1;exitX=0.846;exitY=1.024;exitDx=0;exitDy=0;exitPerimeter=0;" edge="1" parent="1" source="44">
                    <mxGeometry relative="1" as="geometry">
                        <mxPoint x="765.62" y="308" as="sourcePoint"/>
                        <mxPoint x="705.62" y="309" as="targetPoint"/>
                    </mxGeometry>
                </mxCell>
                <mxCell id="43" value="GetDurianPrice()" style="edgeLabel;html=1;align=center;verticalAlign=middle;resizable=0;points=[];" vertex="1" connectable="0" parent="42">
                    <mxGeometry x="-0.1078" y="-1" relative="1" as="geometry">
                        <mxPoint x="2" y="2" as="offset"/>
                    </mxGeometry>
                </mxCell>
                <mxCell id="44" value="" style="rounded=0;whiteSpace=wrap;html=1;rotation=90;" vertex="1" parent="1">
                    <mxGeometry x="765.62" y="252.81" width="134.37" height="20" as="geometry"/>
                </mxCell>
                <mxCell id="45" style="edgeStyle=none;html=1;exitX=0.75;exitY=1;exitDx=0;exitDy=0;" edge="1" parent="1" source="47">
                    <mxGeometry relative="1" as="geometry">
                        <mxPoint x="705.62" y="289" as="targetPoint"/>
                    </mxGeometry>
                </mxCell>
                <mxCell id="46" value="GetDurianType()" style="edgeLabel;html=1;align=center;verticalAlign=middle;resizable=0;points=[];" vertex="1" connectable="0" parent="45">
                    <mxGeometry x="-0.082" relative="1" as="geometry">
                        <mxPoint x="-86" as="offset"/>
                    </mxGeometry>
                </mxCell>
                <mxCell id="47" value="" style="rounded=0;whiteSpace=wrap;html=1;rotation=90;" vertex="1" parent="1">
                    <mxGeometry x="910.6099999999999" y="237.82" width="164.38" height="20" as="geometry"/>
                </mxCell>
                <mxCell id="48" value="" style="endArrow=none;dashed=1;html=1;dashPattern=1 3;strokeWidth=2;startArrow=none;" edge="1" parent="1" target="51">
                    <mxGeometry width="50" height="50" relative="1" as="geometry">
                        <mxPoint x="138.52103448275864" y="400" as="sourcePoint"/>
                        <mxPoint x="138.09" y="150" as="targetPoint"/>
                    </mxGeometry>
                </mxCell>
                <mxCell id="49" style="edgeStyle=none;html=1;entryX=0.08;entryY=0.995;entryDx=0;entryDy=0;entryPerimeter=0;" edge="1" parent="1">
                    <mxGeometry relative="1" as="geometry">
                        <mxPoint x="443.5899999999999" y="282" as="targetPoint"/>
                        <mxPoint x="143.59000000000003" y="290" as="sourcePoint"/>
                    </mxGeometry>
                </mxCell>
                <mxCell id="50" value="SetDurianOrder()" style="edgeLabel;html=1;align=center;verticalAlign=middle;resizable=0;points=[];" vertex="1" connectable="0" parent="49">
                    <mxGeometry x="0.0867" y="-2" relative="1" as="geometry">
                        <mxPoint x="-18" y="-2" as="offset"/>
                    </mxGeometry>
                </mxCell>
                <mxCell id="51" value="" style="rounded=0;whiteSpace=wrap;html=1;rotation=90;" vertex="1" parent="1">
                    <mxGeometry x="-230" y="598.6" width="737.18" height="20" as="geometry"/>
                </mxCell>
                <mxCell id="52" value="" style="endArrow=none;dashed=1;html=1;dashPattern=1 3;strokeWidth=2;" edge="1" parent="1" target="53">
                    <mxGeometry width="50" height="50" relative="1" as="geometry">
                        <mxPoint x="458.0899999999999" y="970" as="sourcePoint"/>
                        <mxPoint x="458.59" y="180" as="targetPoint"/>
                    </mxGeometry>
                </mxCell>
                <mxCell id="53" value="" style="rounded=0;whiteSpace=wrap;html=1;rotation=90;" vertex="1" parent="1">
                    <mxGeometry x="95.55" y="600.55" width="726.09" height="20" as="geometry"/>
                </mxCell>
                <mxCell id="54" value="" style="endArrow=none;dashed=1;html=1;dashPattern=1 3;strokeWidth=2;" edge="1" parent="1" target="55">
                    <mxGeometry width="50" height="50" relative="1" as="geometry">
                        <mxPoint x="223.09000000000003" y="970" as="sourcePoint"/>
                        <mxPoint x="223.59" y="210" as="targetPoint"/>
                    </mxGeometry>
                </mxCell>
                <mxCell id="55" value="" style="rounded=0;whiteSpace=wrap;html=1;rotation=90;" vertex="1" parent="1">
                    <mxGeometry x="163.59" y="470" width="120" height="20" as="geometry"/>
                </mxCell>
                <mxCell id="56" style="edgeStyle=none;html=1;exitX=0.347;exitY=0.02;exitDx=0;exitDy=0;entryX=0.75;entryY=0;entryDx=0;entryDy=0;exitPerimeter=0;" edge="1" parent="1" source="55" target="55">
                    <mxGeometry relative="1" as="geometry">
                        <mxPoint x="233.59" y="310" as="sourcePoint"/>
                        <mxPoint x="233.59" y="350" as="targetPoint"/>
                        <Array as="points">
                            <mxPoint x="253.59" y="460"/>
                            <mxPoint x="253.59" y="510"/>
                        </Array>
                    </mxGeometry>
                </mxCell>
                <mxCell id="57" value="CalculateDeliveryPrice()" style="edgeLabel;html=1;align=center;verticalAlign=middle;resizable=0;points=[];" vertex="1" connectable="0" parent="56">
                    <mxGeometry x="-0.24" y="4" relative="1" as="geometry">
                        <mxPoint x="46" y="10" as="offset"/>
                    </mxGeometry>
                </mxCell>
                <mxCell id="58" value="" style="endArrow=none;dashed=1;html=1;dashPattern=1 3;strokeWidth=2;" edge="1" parent="1" target="61">
                    <mxGeometry width="50" height="50" relative="1" as="geometry">
                        <mxPoint x="1255.62" y="970" as="sourcePoint"/>
                        <mxPoint x="1225.1199999999997" y="150" as="targetPoint"/>
                    </mxGeometry>
                </mxCell>
                <mxCell id="59" style="edgeStyle=none;html=1;exitX=0.25;exitY=1;exitDx=0;exitDy=0;" edge="1" parent="1" source="61">
                    <mxGeometry relative="1" as="geometry">
                        <mxPoint x="705.62" y="550" as="targetPoint"/>
                    </mxGeometry>
                </mxCell>
                <mxCell id="60" value="GetDeliveryPrice()" style="edgeLabel;html=1;align=center;verticalAlign=middle;resizable=0;points=[];" connectable="0" vertex="1" parent="59">
                    <mxGeometry x="-0.0902" relative="1" as="geometry">
                        <mxPoint x="-10" as="offset"/>
                    </mxGeometry>
                </mxCell>
                <mxCell id="61" value="" style="rounded=0;whiteSpace=wrap;html=1;rotation=90;" vertex="1" parent="1">
                    <mxGeometry x="1175.62" y="580" width="160" height="20" as="geometry"/>
                </mxCell>
                <mxCell id="62" style="edgeStyle=none;html=1;entryX=0.165;entryY=-0.042;entryDx=0;entryDy=0;entryPerimeter=0;" edge="1" parent="1" target="64">
                    <mxGeometry relative="1" as="geometry">
                        <Array as="points">
                            <mxPoint x="725.62" y="330"/>
                            <mxPoint x="725.62" y="369"/>
                        </Array>
                        <mxPoint x="706.62" y="330" as="sourcePoint"/>
                    </mxGeometry>
                </mxCell>
                <mxCell id="63" value="CalculateTotalDurianPrice()" style="edgeLabel;html=1;align=center;verticalAlign=middle;resizable=0;points=[];" connectable="0" vertex="1" parent="62">
                    <mxGeometry x="-0.2213" y="1" relative="1" as="geometry">
                        <mxPoint x="49" y="13" as="offset"/>
                    </mxGeometry>
                </mxCell>
                <mxCell id="64" value="" style="rounded=0;whiteSpace=wrap;html=1;rotation=90;" vertex="1" parent="1">
                    <mxGeometry x="330" y="601.88" width="728.75" height="20" as="geometry"/>
                </mxCell>
                <mxCell id="65" value="" style="endArrow=classic;html=1;exitX=0.896;exitY=-0.15;exitDx=0;exitDy=0;exitPerimeter=0;entryX=0.131;entryY=1.079;entryDx=0;entryDy=0;entryPerimeter=0;" edge="1" parent="1" source="55" target="61">
                    <mxGeometry width="50" height="50" relative="1" as="geometry">
                        <mxPoint x="503.59" y="390" as="sourcePoint"/>
                        <mxPoint x="553.59" y="340" as="targetPoint"/>
                    </mxGeometry>
                </mxCell>
                <mxCell id="66" value="SetDeliveryPrice()" style="edgeLabel;html=1;align=center;verticalAlign=middle;resizable=0;points=[];" connectable="0" vertex="1" parent="65">
                    <mxGeometry x="0.0711" y="1" relative="1" as="geometry">
                        <mxPoint x="161" as="offset"/>
                    </mxGeometry>
                </mxCell>
                <mxCell id="67" value="" style="endArrow=classic;html=1;exitX=0.698;exitY=1.136;exitDx=0;exitDy=0;exitPerimeter=0;" edge="1" parent="1" source="73">
                    <mxGeometry width="50" height="50" relative="1" as="geometry">
                        <mxPoint x="632.59" y="586" as="sourcePoint"/>
                        <mxPoint x="473.5899999999999" y="588" as="targetPoint"/>
                    </mxGeometry>
                </mxCell>
                <mxCell id="68" value="ShowTotalDurianPrice()" style="edgeLabel;html=1;align=center;verticalAlign=middle;resizable=0;points=[];" connectable="0" vertex="1" parent="67">
                    <mxGeometry x="-0.3895" y="3" relative="1" as="geometry">
                        <mxPoint x="-107" y="-1" as="offset"/>
                    </mxGeometry>
                </mxCell>
                <mxCell id="69" value="" style="endArrow=classic;html=1;exitX=0.579;exitY=1.073;exitDx=0;exitDy=0;exitPerimeter=0;" edge="1" parent="1" source="64">
                    <mxGeometry width="50" height="50" relative="1" as="geometry">
                        <mxPoint x="567.5899999999999" y="630.0049999999999" as="sourcePoint"/>
                        <mxPoint x="473.5899999999999" y="669" as="targetPoint"/>
                    </mxGeometry>
                </mxCell>
                <mxCell id="70" value="ShowDeliveryPrice()" style="edgeLabel;html=1;align=center;verticalAlign=middle;resizable=0;points=[];" connectable="0" vertex="1" parent="69">
                    <mxGeometry x="-0.2611" y="1" relative="1" as="geometry">
                        <mxPoint x="-19" as="offset"/>
                    </mxGeometry>
                </mxCell>
                <mxCell id="71" value="" style="endArrow=classic;html=1;exitX=0.556;exitY=0.056;exitDx=0;exitDy=0;exitPerimeter=0;" edge="1" parent="1" source="51">
                    <mxGeometry width="50" height="50" relative="1" as="geometry">
                        <mxPoint x="153.59" y="650" as="sourcePoint"/>
                        <mxPoint x="443.5899999999999" y="650" as="targetPoint"/>
                    </mxGeometry>
                </mxCell>
                <mxCell id="72" value="ConfirmOrder()" style="edgeLabel;html=1;align=center;verticalAlign=middle;resizable=0;points=[];" connectable="0" vertex="1" parent="71">
                    <mxGeometry x="-0.1168" y="-1" relative="1" as="geometry">
                        <mxPoint as="offset"/>
                    </mxGeometry>
                </mxCell>
                <mxCell id="73" value="" style="rounded=0;whiteSpace=wrap;html=1;rotation=90;" vertex="1" parent="1">
                    <mxGeometry x="1200.62" y="505" width="370" height="20" as="geometry"/>
                </mxCell>
                <mxCell id="74" value="" style="endArrow=none;dashed=1;html=1;dashPattern=1 3;strokeWidth=2;" edge="1" parent="1" target="75">
                    <mxGeometry width="50" height="50" relative="1" as="geometry">
                        <mxPoint x="1520.1199999999997" y="970" as="sourcePoint"/>
                        <mxPoint x="1520.1199999999997" y="150" as="targetPoint"/>
                    </mxGeometry>
                </mxCell>
                <mxCell id="75" value="" style="rounded=0;whiteSpace=wrap;html=1;rotation=90;" vertex="1" parent="1">
                    <mxGeometry x="1398.12" y="772.5" width="245" height="20" as="geometry"/>
                </mxCell>
                <mxCell id="76" value="" style="endArrow=classic;html=1;" edge="1" parent="1">
                    <mxGeometry width="50" height="50" relative="1" as="geometry">
                        <mxPoint x="705.62" y="710" as="sourcePoint"/>
                        <mxPoint x="1375.62" y="710" as="targetPoint"/>
                    </mxGeometry>
                </mxCell>
                <mxCell id="77" value="RequestPaymentMedthod()" style="edgeLabel;html=1;align=center;verticalAlign=middle;resizable=0;points=[];" connectable="0" vertex="1" parent="76">
                    <mxGeometry x="-0.0869" y="-1" relative="1" as="geometry">
                        <mxPoint x="1" as="offset"/>
                    </mxGeometry>
                </mxCell>
                <mxCell id="78" value="" style="endArrow=classic;html=1;exitX=0.354;exitY=1.01;exitDx=0;exitDy=0;exitPerimeter=0;entryX=0.685;entryY=-0.062;entryDx=0;entryDy=0;entryPerimeter=0;" edge="1" parent="1" source="75" target="64">
                    <mxGeometry width="50" height="50" relative="1" as="geometry">
                        <mxPoint x="705.6200000000002" y="738.3899999999999" as="sourcePoint"/>
                        <mxPoint x="705.62" y="740" as="targetPoint"/>
                    </mxGeometry>
                </mxCell>
                <mxCell id="79" value="SendPaymentMedthod()" style="edgeLabel;html=1;align=center;verticalAlign=middle;resizable=0;points=[];" connectable="0" vertex="1" parent="78">
                    <mxGeometry x="-0.0984" y="-1" relative="1" as="geometry">
                        <mxPoint x="-56" y="1" as="offset"/>
                    </mxGeometry>
                </mxCell>
                <mxCell id="80" value="" style="endArrow=classic;html=1;entryX=0.636;entryY=1.076;entryDx=0;entryDy=0;exitX=0.638;exitY=0.016;exitDx=0;exitDy=0;exitPerimeter=0;entryPerimeter=0;" edge="1" parent="1" source="51" target="53">
                    <mxGeometry width="50" height="50" relative="1" as="geometry">
                        <mxPoint x="153.59" y="730" as="sourcePoint"/>
                        <mxPoint x="443.59" y="760" as="targetPoint"/>
                    </mxGeometry>
                </mxCell>
                <mxCell id="81" value="MakePayment()" style="edgeLabel;html=1;align=center;verticalAlign=middle;resizable=0;points=[];" connectable="0" vertex="1" parent="80">
                    <mxGeometry x="-0.083" y="1" relative="1" as="geometry">
                        <mxPoint x="23" as="offset"/>
                    </mxGeometry>
                </mxCell>
                <mxCell id="82" value="" style="endArrow=classic;html=1;exitX=0.773;exitY=-0.162;exitDx=0;exitDy=0;exitPerimeter=0;entryX=0.612;entryY=1.05;entryDx=0;entryDy=0;entryPerimeter=0;" edge="1" parent="1" source="64" target="75">
                    <mxGeometry width="50" height="50" relative="1" as="geometry">
                        <mxPoint x="1005.62" y="710" as="sourcePoint"/>
                        <mxPoint x="1055.6200000000001" y="660" as="targetPoint"/>
                    </mxGeometry>
                </mxCell>
                <mxCell id="83" value="RequestConfirmPayment()" style="edgeLabel;html=1;align=center;verticalAlign=middle;resizable=0;points=[];" connectable="0" vertex="1" parent="82">
                    <mxGeometry x="0.0647" y="-1" relative="1" as="geometry">
                        <mxPoint as="offset"/>
                    </mxGeometry>
                </mxCell>
                <mxCell id="84" value="" style="endArrow=classic;html=1;exitX=0.75;exitY=1;exitDx=0;exitDy=0;" edge="1" parent="1" source="75">
                    <mxGeometry width="50" height="50" relative="1" as="geometry">
                        <mxPoint x="1005.62" y="710" as="sourcePoint"/>
                        <mxPoint x="705.62" y="844" as="targetPoint"/>
                    </mxGeometry>
                </mxCell>
                <mxCell id="85" value="ComfirmPayment()" style="edgeLabel;html=1;align=center;verticalAlign=middle;resizable=0;points=[];" connectable="0" vertex="1" parent="84">
                    <mxGeometry x="-0.0305" y="1" relative="1" as="geometry">
                        <mxPoint as="offset"/>
                    </mxGeometry>
                </mxCell>
                <mxCell id="86" value="" style="endArrow=classic;html=1;" edge="1" parent="1">
                    <mxGeometry width="50" height="50" relative="1" as="geometry">
                        <mxPoint x="705.62" y="860" as="sourcePoint"/>
                        <mxPoint x="705.62" y="930" as="targetPoint"/>
                        <Array as="points">
                            <mxPoint x="725.62" y="860"/>
                            <mxPoint x="725.62" y="890"/>
                            <mxPoint x="725.62" y="930"/>
                        </Array>
                    </mxGeometry>
                </mxCell>
                <mxCell id="87" value="CreateReciept()" style="edgeLabel;html=1;align=center;verticalAlign=middle;resizable=0;points=[];" connectable="0" vertex="1" parent="86">
                    <mxGeometry x="0.0836" relative="1" as="geometry">
                        <mxPoint x="20" as="offset"/>
                    </mxGeometry>
                </mxCell>
                <mxCell id="88" value="" style="endArrow=classic;html=1;exitX=0.971;exitY=0.972;exitDx=0;exitDy=0;exitPerimeter=0;entryX=0.967;entryY=-0.171;entryDx=0;entryDy=0;entryPerimeter=0;" edge="1" parent="1" source="53" target="51">
                    <mxGeometry width="50" height="50" relative="1" as="geometry">
                        <mxPoint x="443.59" y="950" as="sourcePoint"/>
                        <mxPoint x="153.59" y="950" as="targetPoint"/>
                    </mxGeometry>
                </mxCell>
                <mxCell id="89" value="SendReciept()" style="edgeLabel;html=1;align=center;verticalAlign=middle;resizable=0;points=[];" connectable="0" vertex="1" parent="88">
                    <mxGeometry x="-0.0472" y="-2" relative="1" as="geometry">
                        <mxPoint x="-10" as="offset"/>
                    </mxGeometry>
                </mxCell>
                <mxCell id="90" value="&lt;p style=&quot;margin:0px;margin-top:4px;text-align:center;&quot;&gt;&amp;lt;&amp;lt;Entity&amp;gt;&amp;gt;&lt;br&gt;&lt;b&gt;Location&lt;/b&gt;&lt;/p&gt;" style="shape=rect;html=1;overflow=fill;html=1;whiteSpace=wrap;align=center;" vertex="1" parent="1">
                    <mxGeometry x="1065.6200000000001" y="70" width="120" height="40" as="geometry"/>
                </mxCell>
                <mxCell id="91" value="" style="endArrow=none;dashed=1;html=1;dashPattern=1 3;strokeWidth=2;" edge="1" parent="1">
                    <mxGeometry width="50" height="50" relative="1" as="geometry">
                        <mxPoint x="1124.62" y="971.5237862723216" as="sourcePoint"/>
                        <mxPoint x="1125.1399999999999" y="150" as="targetPoint"/>
                    </mxGeometry>
                </mxCell>
                <mxCell id="92" value="" style="rounded=0;whiteSpace=wrap;html=1;rotation=90;" vertex="1" parent="1">
                    <mxGeometry x="1043.43" y="400" width="164.38" height="20" as="geometry"/>
                </mxCell>
                <mxCell id="93" value="" style="endArrow=classic;html=1;entryX=0.143;entryY=1.1;entryDx=0;entryDy=0;entryPerimeter=0;" edge="1" parent="1" target="73">
                    <mxGeometry width="50" height="50" relative="1" as="geometry">
                        <mxPoint x="705.62" y="381" as="sourcePoint"/>
                        <mxPoint x="1245.62" y="380" as="targetPoint"/>
                    </mxGeometry>
                </mxCell>
                <mxCell id="94" value="SetTotalDurianPrice()" style="edgeLabel;html=1;align=center;verticalAlign=middle;resizable=0;points=[];" connectable="0" vertex="1" parent="93">
                    <mxGeometry x="0.0854" y="-1" relative="1" as="geometry">
                        <mxPoint x="-13" as="offset"/>
                    </mxGeometry>
                </mxCell>
                <mxCell id="95" style="edgeStyle=none;html=1;entryX=0.093;entryY=-0.1;entryDx=0;entryDy=0;entryPerimeter=0;exitX=0.638;exitY=1.264;exitDx=0;exitDy=0;exitPerimeter=0;" edge="1" parent="1" source="92" target="55">
                    <mxGeometry relative="1" as="geometry">
                        <mxPoint x="443.59" y="431" as="sourcePoint"/>
                    </mxGeometry>
                </mxCell>
                <mxCell id="96" value="GetLocation()" style="edgeLabel;html=1;align=center;verticalAlign=middle;resizable=0;points=[];" vertex="1" connectable="0" parent="95">
                    <mxGeometry x="-0.1474" y="1" relative="1" as="geometry">
                        <mxPoint x="-353" y="-3" as="offset"/>
                    </mxGeometry>
                </mxCell>
                <mxCell id="97" value="x" style="edgeStyle=none;html=1;entryX=0.437;entryY=1.036;entryDx=0;entryDy=0;entryPerimeter=0;exitX=0.216;exitY=-0.07;exitDx=0;exitDy=0;exitPerimeter=0;" edge="1" parent="1" source="51" target="92">
                    <mxGeometry relative="1" as="geometry">
                        <mxPoint x="443.59" y="410" as="targetPoint"/>
                        <mxPoint x="153.59" y="399" as="sourcePoint"/>
                    </mxGeometry>
                </mxCell>
                <mxCell id="98" value="SetLocation()" style="edgeLabel;html=1;align=center;verticalAlign=middle;resizable=0;points=[];" vertex="1" connectable="0" parent="97">
                    <mxGeometry x="-0.096" relative="1" as="geometry">
                        <mxPoint x="-209" y="1" as="offset"/>
                    </mxGeometry>
                </mxCell>
                <mxCell id="99" value="" style="endArrow=classic;html=1;entryX=0.954;entryY=-0.171;entryDx=0;entryDy=0;entryPerimeter=0;" edge="1" parent="1" target="53">
                    <mxGeometry width="50" height="50" relative="1" as="geometry">
                        <mxPoint x="680" y="940" as="sourcePoint"/>
                        <mxPoint x="473.59" y="940" as="targetPoint"/>
                    </mxGeometry>
                </mxCell>
                <mxCell id="100" value="GetReciept()" style="edgeLabel;html=1;align=center;verticalAlign=middle;resizable=0;points=[];" connectable="0" vertex="1" parent="99">
                    <mxGeometry x="-0.0472" y="-2" relative="1" as="geometry">
                        <mxPoint x="-10" as="offset"/>
                    </mxGeometry>
                </mxCell>
            </root>
        </mxGraphModel>
    </diagram>
    <diagram id="cQkB8bKxdc51IjQwFyQP" name="Page-1">
        <mxGraphModel dx="832" dy="551" grid="1" gridSize="10" guides="1" tooltips="1" connect="1" arrows="1" fold="1" page="1" pageScale="1" pageWidth="850" pageHeight="1100" math="0" shadow="0">
            <root>
                <mxCell id="0"/>
                <mxCell id="1" parent="0"/>
                <mxCell id="2" value="Customer" style="shape=umlActor;verticalLabelPosition=bottom;verticalAlign=top;html=1;outlineConnect=0;" vertex="1" parent="1">
                    <mxGeometry x="310" y="40" width="30" height="60" as="geometry"/>
                </mxCell>
                <mxCell id="3" value="&lt;p style=&quot;margin:0px;margin-top:4px;text-align:center;&quot;&gt;&amp;lt;&amp;lt;Boundary&amp;gt;&amp;gt;&lt;br&gt;&lt;b&gt;Payment Page&lt;/b&gt;&lt;/p&gt;" style="shape=rect;html=1;overflow=fill;html=1;whiteSpace=wrap;align=center;" vertex="1" parent="1">
                    <mxGeometry x="370" y="60" width="90" height="40" as="geometry"/>
                </mxCell>
                <mxCell id="4" value="Seller" style="shape=umlActor;verticalLabelPosition=bottom;verticalAlign=top;html=1;outlineConnect=0;" vertex="1" parent="1">
                    <mxGeometry x="30" y="40" width="30" height="60" as="geometry"/>
                </mxCell>
                <mxCell id="10" value="&amp;lt;&amp;lt;System&amp;gt;&amp;gt;&lt;br&gt;Bank" style="shape=umlActor;verticalLabelPosition=bottom;verticalAlign=top;html=1;outlineConnect=0;" vertex="1" parent="1">
                    <mxGeometry x="1310" y="40" width="30" height="60" as="geometry"/>
                </mxCell>
                <mxCell id="11" value="&amp;lt;&amp;lt;System&amp;gt;&amp;gt;&lt;br&gt;Logistic Provider" style="shape=umlActor;verticalLabelPosition=bottom;verticalAlign=top;html=1;outlineConnect=0;" vertex="1" parent="1">
                    <mxGeometry x="110" y="40" width="30" height="60" as="geometry"/>
                </mxCell>
                <mxCell id="14" value="&lt;p style=&quot;margin:0px;margin-top:4px;text-align:center;&quot;&gt;&amp;lt;&amp;lt;Boundary&amp;gt;&amp;gt;&lt;br&gt;&lt;b&gt;Set Price Page&lt;/b&gt;&lt;/p&gt;" style="shape=rect;html=1;overflow=fill;html=1;whiteSpace=wrap;align=center;" vertex="1" parent="1">
                    <mxGeometry x="170" y="70" width="90" height="40" as="geometry"/>
                </mxCell>
                <mxCell id="15" value="&lt;p style=&quot;margin:0px;margin-top:4px;text-align:center;&quot;&gt;&amp;lt;&amp;lt;Control&amp;gt;&amp;gt;&lt;br&gt;&lt;b&gt;PaymentController&lt;/b&gt;&lt;/p&gt;" style="shape=rect;html=1;overflow=fill;html=1;whiteSpace=wrap;align=center;" vertex="1" parent="1">
                    <mxGeometry x="490" y="60" width="120" height="40" as="geometry"/>
                </mxCell>
                <mxCell id="16" value="&lt;p style=&quot;margin:0px;margin-top:4px;text-align:center;&quot;&gt;&amp;lt;&amp;lt;Entity&amp;gt;&amp;gt;&lt;br&gt;&lt;b&gt;Durian Price&lt;/b&gt;&lt;/p&gt;" style="shape=rect;html=1;overflow=fill;html=1;whiteSpace=wrap;align=center;" vertex="1" parent="1">
                    <mxGeometry x="810" y="60" width="120" height="40" as="geometry"/>
                </mxCell>
                <mxCell id="18" value="&lt;p style=&quot;margin:0px;margin-top:4px;text-align:center;&quot;&gt;&amp;lt;&amp;lt;Entity&amp;gt;&amp;gt;&lt;br&gt;&lt;b&gt;Durian Type&lt;/b&gt;&lt;/p&gt;" style="shape=rect;html=1;overflow=fill;html=1;whiteSpace=wrap;align=center;" vertex="1" parent="1">
                    <mxGeometry x="650" y="60" width="120" height="40" as="geometry"/>
                </mxCell>
                <mxCell id="19" value="&lt;p style=&quot;margin:0px;margin-top:4px;text-align:center;&quot;&gt;&amp;lt;&amp;lt;Entity&amp;gt;&amp;gt;&lt;br&gt;&lt;b&gt;Deliver Price&lt;/b&gt;&lt;/p&gt;" style="shape=rect;html=1;overflow=fill;html=1;whiteSpace=wrap;align=center;" vertex="1" parent="1">
                    <mxGeometry x="970" y="60" width="120" height="40" as="geometry"/>
                </mxCell>
                <mxCell id="20" value="&lt;p style=&quot;margin:0px;margin-top:4px;text-align:center;&quot;&gt;&amp;lt;&amp;lt;Entity&amp;gt;&amp;gt;&lt;br&gt;&lt;b&gt;Total Price&lt;/b&gt;&lt;/p&gt;" style="shape=rect;html=1;overflow=fill;html=1;whiteSpace=wrap;align=center;" vertex="1" parent="1">
                    <mxGeometry x="1130" y="60" width="120" height="40" as="geometry"/>
                </mxCell>
                <mxCell id="24" value="" style="endArrow=none;dashed=1;html=1;dashPattern=1 3;strokeWidth=2;" edge="1" parent="1">
                    <mxGeometry width="50" height="50" relative="1" as="geometry">
                        <mxPoint x="50" y="960" as="sourcePoint"/>
                        <mxPoint x="50" y="140" as="targetPoint"/>
                    </mxGeometry>
                </mxCell>
                <mxCell id="25" value="" style="endArrow=none;dashed=1;html=1;dashPattern=1 3;strokeWidth=2;" edge="1" parent="1">
                    <mxGeometry width="50" height="50" relative="1" as="geometry">
                        <mxPoint x="124.5" y="960" as="sourcePoint"/>
                        <mxPoint x="124.5" y="140" as="targetPoint"/>
                    </mxGeometry>
                </mxCell>
                <mxCell id="26" value="" style="endArrow=none;dashed=1;html=1;dashPattern=1 3;strokeWidth=2;startArrow=none;" edge="1" parent="1" source="40">
                    <mxGeometry width="50" height="50" relative="1" as="geometry">
                        <mxPoint x="214.5" y="960" as="sourcePoint"/>
                        <mxPoint x="214.5" y="140" as="targetPoint"/>
                    </mxGeometry>
                </mxCell>
                <mxCell id="27" value="" style="endArrow=none;dashed=1;html=1;dashPattern=1 3;strokeWidth=2;" edge="1" parent="1">
                    <mxGeometry width="50" height="50" relative="1" as="geometry">
                        <mxPoint x="324.5" y="960" as="sourcePoint"/>
                        <mxPoint x="324.5" y="140" as="targetPoint"/>
                    </mxGeometry>
                </mxCell>
                <mxCell id="28" value="" style="endArrow=none;dashed=1;html=1;dashPattern=1 3;strokeWidth=2;" edge="1" parent="1">
                    <mxGeometry width="50" height="50" relative="1" as="geometry">
                        <mxPoint x="414.5" y="960" as="sourcePoint"/>
                        <mxPoint x="414.5" y="140" as="targetPoint"/>
                    </mxGeometry>
                </mxCell>
                <mxCell id="29" value="" style="endArrow=none;dashed=1;html=1;dashPattern=1 3;strokeWidth=2;" edge="1" parent="1">
                    <mxGeometry width="50" height="50" relative="1" as="geometry">
                        <mxPoint x="549.5" y="960" as="sourcePoint"/>
                        <mxPoint x="549.5" y="140" as="targetPoint"/>
                    </mxGeometry>
                </mxCell>
                <mxCell id="30" value="" style="endArrow=none;dashed=1;html=1;dashPattern=1 3;strokeWidth=2;" edge="1" parent="1">
                    <mxGeometry width="50" height="50" relative="1" as="geometry">
                        <mxPoint x="709.5" y="960" as="sourcePoint"/>
                        <mxPoint x="709.5" y="140" as="targetPoint"/>
                    </mxGeometry>
                </mxCell>
                <mxCell id="31" value="" style="endArrow=none;dashed=1;html=1;dashPattern=1 3;strokeWidth=2;" edge="1" parent="1">
                    <mxGeometry width="50" height="50" relative="1" as="geometry">
                        <mxPoint x="869.5" y="960" as="sourcePoint"/>
                        <mxPoint x="869.5" y="140" as="targetPoint"/>
                    </mxGeometry>
                </mxCell>
                <mxCell id="32" value="" style="endArrow=none;dashed=1;html=1;dashPattern=1 3;strokeWidth=2;" edge="1" parent="1">
                    <mxGeometry width="50" height="50" relative="1" as="geometry">
                        <mxPoint x="1029.5" y="960" as="sourcePoint"/>
                        <mxPoint x="1029.5" y="140" as="targetPoint"/>
                    </mxGeometry>
                </mxCell>
                <mxCell id="33" value="" style="endArrow=none;dashed=1;html=1;dashPattern=1 3;strokeWidth=2;" edge="1" parent="1">
                    <mxGeometry width="50" height="50" relative="1" as="geometry">
                        <mxPoint x="1189.5" y="960" as="sourcePoint"/>
                        <mxPoint x="1189.5" y="140" as="targetPoint"/>
                    </mxGeometry>
                </mxCell>
                <mxCell id="34" value="" style="endArrow=none;dashed=1;html=1;dashPattern=1 3;strokeWidth=2;" edge="1" parent="1">
                    <mxGeometry width="50" height="50" relative="1" as="geometry">
                        <mxPoint x="1324.5" y="960" as="sourcePoint"/>
                        <mxPoint x="1324.5" y="140" as="targetPoint"/>
                    </mxGeometry>
                </mxCell>
                <mxCell id="38" value="" style="rounded=0;whiteSpace=wrap;html=1;rotation=90;" vertex="1" parent="1">
                    <mxGeometry x="10" y="190" width="80" height="20" as="geometry"/>
                </mxCell>
                <mxCell id="39" value="" style="endArrow=classic;html=1;exitX=0.158;exitY=-0.1;exitDx=0;exitDy=0;entryX=0.158;entryY=0.99;entryDx=0;entryDy=0;exitPerimeter=0;entryPerimeter=0;" edge="1" parent="1" source="38" target="40">
                    <mxGeometry width="50" height="50" relative="1" as="geometry">
                        <mxPoint x="190" y="270" as="sourcePoint"/>
                        <mxPoint x="200" y="200" as="targetPoint"/>
                    </mxGeometry>
                </mxCell>
                <mxCell id="43" value="SetPrice()" style="edgeLabel;html=1;align=center;verticalAlign=middle;resizable=0;points=[];" vertex="1" connectable="0" parent="39">
                    <mxGeometry x="0.1752" y="2" relative="1" as="geometry">
                        <mxPoint x="-20" y="2" as="offset"/>
                    </mxGeometry>
                </mxCell>
                <mxCell id="41" value="" style="endArrow=none;dashed=1;html=1;dashPattern=1 3;strokeWidth=2;" edge="1" parent="1" target="40">
                    <mxGeometry width="50" height="50" relative="1" as="geometry">
                        <mxPoint x="214.5" y="960" as="sourcePoint"/>
                        <mxPoint x="214.5" y="140" as="targetPoint"/>
                    </mxGeometry>
                </mxCell>
                <mxCell id="40" value="" style="rounded=0;whiteSpace=wrap;html=1;rotation=90;" vertex="1" parent="1">
                    <mxGeometry x="175" y="190" width="80" height="20" as="geometry"/>
                </mxCell>
            </root>
        </mxGraphModel>
    </diagram>
</mxfile>